<svg width="171" height="14" viewBox="0 0 171 14" fill="none" xmlns="http://www.w3.org/2000/svg">
<path d="M4.99535 10.1048C4.43665 10.1048 3.91985 10.014 3.44495 9.83239C2.97005 9.64383 2.55451 9.38193 2.19834 9.04671C1.84216 8.7045 1.5663 8.30643 1.37076 7.85248C1.18219 7.39155 1.08791 6.88522 1.08791 6.3335C1.08791 5.79575 1.18569 5.30339 1.38123 4.85643C1.57678 4.40248 1.84915 4.0079 2.19834 3.67267C2.55451 3.33745 2.96656 3.07905 3.43447 2.89747C3.90937 2.70891 4.41919 2.61463 4.96392 2.61463C5.34803 2.61463 5.72516 2.6705 6.0953 2.78224C6.46544 2.89398 6.80416 3.04413 7.11144 3.23269C7.42572 3.41427 7.68062 3.62029 7.87617 3.85076L7.34191 4.50025C7.14636 4.27677 6.91939 4.08821 6.66099 3.93457C6.40957 3.77394 6.1372 3.64823 5.84388 3.55744C5.55056 3.46665 5.24677 3.42126 4.9325 3.42126C4.52045 3.42126 4.12936 3.49109 3.75922 3.63077C3.38908 3.77045 3.06782 3.97298 2.79545 4.23836C2.53007 4.49676 2.32055 4.80405 2.16691 5.16022C2.01327 5.5164 1.93644 5.90749 1.93644 6.3335C1.93644 6.77348 2.01327 7.17854 2.16691 7.54868C2.32754 7.91184 2.54753 8.22262 2.82688 8.48102C3.11322 8.73942 3.44495 8.94195 3.82207 9.08861C4.1992 9.22829 4.61124 9.29813 5.05821 9.29813C5.37946 9.29813 5.68326 9.25622 5.96959 9.17242C6.26291 9.08163 6.5248 8.9664 6.75527 8.82672C6.99272 8.68006 7.19525 8.51594 7.36286 8.33436L7.77141 9.02576C7.59682 9.21432 7.36286 9.39241 7.06954 9.56002C6.77622 9.72065 6.44798 9.85334 6.08482 9.9581C5.72865 10.0559 5.36549 10.1048 4.99535 10.1048ZM11.07 10V2.667H16.0983V3.46316H11.8871V9.20385H16.0773V10H11.07ZM11.4785 6.62682V5.83067H15.5117V6.62682H11.4785ZM19.6879 10V2.667H20.4631L25.8685 9.03623L25.7533 9.2248C25.7254 9.09211 25.7044 8.90354 25.6904 8.65911C25.6835 8.41468 25.673 8.1458 25.659 7.85248C25.652 7.55218 25.645 7.24838 25.6381 6.94109C25.6311 6.62682 25.6276 6.3335 25.6276 6.06113C25.6276 5.78178 25.6276 5.54782 25.6276 5.35926V2.667H26.4447V10H25.6381L20.2745 3.73553L20.3583 3.51554C20.3723 3.71807 20.3827 3.93806 20.3897 4.17551C20.4037 4.41296 20.4177 4.65739 20.4316 4.90881C20.4526 5.15324 20.4666 5.39069 20.4735 5.62115C20.4875 5.85162 20.4945 6.05764 20.4945 6.23922C20.5015 6.4208 20.505 6.56397 20.505 6.66872V10H19.6879ZM31.8917 10V3.46316H29.5033V2.667H35.1811V3.46316H32.7088V10H31.8917Z" fill="#3A3A3A"/>
<path d="M64.5686 10L67.6799 2.667H68.6437L71.734 10H70.8331L68.717 4.99261C68.6541 4.825 68.5913 4.66437 68.5284 4.51073C68.4726 4.3501 68.4132 4.19646 68.3503 4.0498C68.2945 3.89615 68.2386 3.74251 68.1827 3.58887C68.1269 3.43522 68.071 3.28158 68.0151 3.12794H68.2456C68.1827 3.30951 68.1234 3.48062 68.0675 3.64125C68.0116 3.79489 67.9523 3.94504 67.8894 4.0917C67.8335 4.23836 67.7742 4.38851 67.7113 4.54216C67.6485 4.6958 67.5821 4.86341 67.5123 5.04499L65.4067 10H64.5686ZM65.8676 8.02009L66.1923 7.22394H70.0579L70.3303 8.02009H65.8676ZM74.7724 10V2.667H78.1036C78.5366 2.667 78.9277 2.76478 79.2769 2.96032C79.6261 3.15587 79.902 3.42475 80.1045 3.76695C80.307 4.10218 80.4083 4.48279 80.4083 4.90881C80.4083 5.32783 80.3035 5.70496 80.094 6.04018C79.8915 6.37541 79.6121 6.64079 79.256 6.83634C78.8998 7.03188 78.5052 7.12966 78.0722 7.12966H75.5895V10H74.7724ZM79.7693 10L77.6741 6.77348L78.4808 6.51159L80.7645 10H79.7693ZM75.5895 6.3335H78.0722C78.3655 6.3335 78.6204 6.27414 78.8369 6.15542C79.0604 6.02971 79.235 5.8586 79.3607 5.64211C79.4864 5.42561 79.5493 5.18117 79.5493 4.90881C79.5493 4.63644 79.4794 4.392 79.3398 4.17551C79.2071 3.95202 79.0185 3.77743 78.7741 3.65172C78.5366 3.52601 78.2608 3.46316 77.9465 3.46316H75.5895V6.3335ZM87.2737 10.1048C86.715 10.1048 86.1982 10.014 85.7233 9.83239C85.2484 9.64383 84.8329 9.38193 84.4767 9.04671C84.1205 8.7045 83.8447 8.30643 83.6491 7.85248C83.4606 7.39155 83.3663 6.88522 83.3663 6.3335C83.3663 5.79575 83.4641 5.30339 83.6596 4.85643C83.8552 4.40248 84.1275 4.0079 84.4767 3.67267C84.8329 3.33745 85.2449 3.07905 85.7128 2.89747C86.1877 2.70891 86.6976 2.61463 87.2423 2.61463C87.6264 2.61463 88.0035 2.6705 88.3737 2.78224C88.7438 2.89398 89.0825 3.04413 89.3898 3.23269C89.7041 3.41427 89.959 3.62029 90.1545 3.85076L89.6203 4.50025C89.4247 4.27677 89.1978 4.08821 88.9394 3.93457C88.6879 3.77394 88.4156 3.64823 88.1223 3.55744C87.8289 3.46665 87.5251 3.42126 87.2109 3.42126C86.7988 3.42126 86.4077 3.49109 86.0376 3.63077C85.6675 3.77045 85.3462 3.97298 85.0738 4.23836C84.8084 4.49676 84.5989 4.80405 84.4453 5.16022C84.2916 5.5164 84.2148 5.90749 84.2148 6.3335C84.2148 6.77348 84.2916 7.17854 84.4453 7.54868C84.6059 7.91184 84.8259 8.22262 85.1053 8.48102C85.3916 8.73942 85.7233 8.94195 86.1004 9.08861C86.4776 9.22829 86.8896 9.29813 87.3366 9.29813C87.6578 9.29813 87.9616 9.25622 88.248 9.17242C88.5413 9.08163 88.8032 8.9664 89.0336 8.82672C89.2711 8.68006 89.4736 8.51594 89.6412 8.33436L90.0498 9.02576C89.8752 9.21432 89.6412 9.39241 89.3479 9.56002C89.0546 9.72065 88.7264 9.85334 88.3632 9.9581C88.007 10.0559 87.6439 10.1048 87.2737 10.1048ZM98.8376 10V2.667H99.6547V10H98.8376ZM93.3483 10V2.667H94.1654V10H93.3483ZM93.7464 6.76301V5.96685H99.1833V6.76301H93.7464ZM103.353 10V9.20385H104.83V3.46316H103.353V2.667H107.124V3.46316H105.647V9.20385H107.124V10H103.353ZM112.37 10V3.46316H109.981V2.667H115.659V3.46316H113.187V10H112.37ZM118.721 10V2.667H123.75V3.46316H119.538V9.20385H123.729V10H118.721ZM119.13 6.62682V5.83067H123.163V6.62682H119.13ZM130.66 10.1048C130.101 10.1048 129.584 10.014 129.11 9.83239C128.635 9.64383 128.219 9.38193 127.863 9.04671C127.507 8.7045 127.231 8.30643 127.035 7.85248C126.847 7.39155 126.752 6.88522 126.752 6.3335C126.752 5.79575 126.85 5.30339 127.046 4.85643C127.241 4.40248 127.514 4.0079 127.863 3.67267C128.219 3.33745 128.631 3.07905 129.099 2.89747C129.574 2.70891 130.084 2.61463 130.629 2.61463C131.013 2.61463 131.39 2.6705 131.76 2.78224C132.13 2.89398 132.469 3.04413 132.776 3.23269C133.09 3.41427 133.345 3.62029 133.541 3.85076L133.006 4.50025C132.811 4.27677 132.584 4.08821 132.326 3.93457C132.074 3.77394 131.802 3.64823 131.508 3.55744C131.215 3.46665 130.911 3.42126 130.597 3.42126C130.185 3.42126 129.794 3.49109 129.424 3.63077C129.054 3.77045 128.732 3.97298 128.46 4.23836C128.195 4.49676 127.985 4.80405 127.831 5.16022C127.678 5.5164 127.601 5.90749 127.601 6.3335C127.601 6.77348 127.678 7.17854 127.831 7.54868C127.992 7.91184 128.212 8.22262 128.491 8.48102C128.778 8.73942 129.11 8.94195 129.487 9.08861C129.864 9.22829 130.276 9.29813 130.723 9.29813C131.044 9.29813 131.348 9.25622 131.634 9.17242C131.927 9.08163 132.189 8.9664 132.42 8.82672C132.657 8.68006 132.86 8.51594 133.027 8.33436L133.436 9.02576C133.261 9.21432 133.027 9.39241 132.734 9.56002C132.441 9.72065 132.113 9.85334 131.749 9.9581C131.393 10.0559 131.03 10.1048 130.66 10.1048ZM138.274 10V3.46316H135.886V2.667H141.564V3.46316H139.092V10H138.274ZM147.727 10.0733C147.105 10.0733 146.557 9.93715 146.082 9.66478C145.607 9.39241 145.234 9.01878 144.961 8.54388C144.696 8.06199 144.563 7.51726 144.563 6.90967V2.667H145.38V6.84681C145.38 7.30774 145.482 7.72328 145.684 8.09342C145.894 8.45658 146.173 8.74292 146.522 8.95243C146.878 9.16194 147.28 9.2667 147.727 9.2667C148.195 9.2667 148.607 9.16194 148.963 8.95243C149.326 8.74292 149.609 8.45658 149.812 8.09342C150.021 7.72328 150.126 7.30774 150.126 6.84681V2.667H150.912V6.92014C150.912 7.52075 150.775 8.06199 150.503 8.54388C150.238 9.01878 149.864 9.39241 149.382 9.66478C148.907 9.93715 148.355 10.0733 147.727 10.0733ZM154.779 10V2.667H158.11C158.543 2.667 158.934 2.76478 159.283 2.96032C159.632 3.15587 159.908 3.42475 160.111 3.76695C160.313 4.10218 160.414 4.48279 160.414 4.90881C160.414 5.32783 160.31 5.70496 160.1 6.04018C159.898 6.37541 159.618 6.64079 159.262 6.83634C158.906 7.03188 158.511 7.12966 158.078 7.12966H155.596V10H154.779ZM159.775 10L157.68 6.77348L158.487 6.51159L160.771 10H159.775ZM155.596 6.3335H158.078C158.372 6.3335 158.627 6.27414 158.843 6.15542C159.067 6.02971 159.241 5.8586 159.367 5.64211C159.493 5.42561 159.555 5.18117 159.555 4.90881C159.555 4.63644 159.486 4.392 159.346 4.17551C159.213 3.95202 159.025 3.77743 158.78 3.65172C158.543 3.52601 158.267 3.46316 157.953 3.46316H155.596V6.3335ZM164.061 10V2.667H169.09V3.46316H164.878V9.20385H169.069V10H164.061ZM164.47 6.62682V5.83067H168.503V6.62682H164.47Z" fill="#3A3A3A"/>
<mask id="path-3-outside-1_4370_720" maskUnits="userSpaceOnUse" x="43.7466" y="2" width="14" height="9" fill="black">
<rect fill="white" x="43.7466" y="2" width="14" height="9"/>
<path d="M47.2094 2.76866V9.46266H49.1311V10.0729H44.6502V9.46266H46.5628V3.37886H44.6502V2.76866H47.2094ZM56.1792 5.95628L56.7621 6.93988V8.58834L56.1792 9.57195L55.1683 10.1366H54.0116L53.0007 9.57195L52.4178 8.58834V7.75956H53.0553V8.4153L53.4652 9.09836L54.1756 9.48998H55.0043L55.7147 9.09836L56.1246 8.4153V7.11293L55.7147 6.42987L55.0043 6.03824H54.3031L53.1828 6.65755H52.5453L52.7912 2.76866H56.4524V3.37886H53.3923L53.2284 5.90163L54.1391 5.39161H55.1683L56.1792 5.95628Z"/>
</mask>
<path d="M47.2094 2.76866V9.46266H49.1311V10.0729H44.6502V9.46266H46.5628V3.37886H44.6502V2.76866H47.2094ZM56.1792 5.95628L56.7621 6.93988V8.58834L56.1792 9.57195L55.1683 10.1366H54.0116L53.0007 9.57195L52.4178 8.58834V7.75956H53.0553V8.4153L53.4652 9.09836L54.1756 9.48998H55.0043L55.7147 9.09836L56.1246 8.4153V7.11293L55.7147 6.42987L55.0043 6.03824H54.3031L53.1828 6.65755H52.5453L52.7912 2.76866H56.4524V3.37886H53.3923L53.2284 5.90163L54.1391 5.39161H55.1683L56.1792 5.95628Z" fill="#3A3A3A"/>
<path d="M47.2094 2.76866H47.2925V2.68551H47.2094V2.76866ZM47.2094 9.46266H47.1262V9.54581H47.2094V9.46266ZM49.1311 9.46266H49.2142V9.37951H49.1311V9.46266ZM49.1311 10.0729V10.156H49.2142V10.0729H49.1311ZM44.6502 10.0729H44.567V10.156H44.6502V10.0729ZM44.6502 9.46266V9.37951H44.567V9.46266H44.6502ZM46.5628 9.46266V9.54581H46.6459V9.46266H46.5628ZM46.5628 3.37886H46.6459V3.29571H46.5628V3.37886ZM44.6502 3.37886H44.567V3.462H44.6502V3.37886ZM44.6502 2.76866V2.68551H44.567V2.76866H44.6502ZM47.1262 2.76866V9.46266H47.2925V2.76866H47.1262ZM47.2094 9.54581H49.1311V9.37951H47.2094V9.54581ZM49.0479 9.46266V10.0729H49.2142V9.46266H49.0479ZM49.1311 9.98971H44.6502V10.156H49.1311V9.98971ZM44.7333 10.0729V9.46266H44.567V10.0729H44.7333ZM44.6502 9.54581H46.5628V9.37951H44.6502V9.54581ZM46.6459 9.46266V3.37886H46.4796V9.46266H46.6459ZM46.5628 3.29571H44.6502V3.462H46.5628V3.29571ZM44.7333 3.37886V2.76866H44.567V3.37886H44.7333ZM44.6502 2.8518H47.2094V2.68551H44.6502V2.8518ZM56.1792 5.95628L56.2507 5.91389L56.2393 5.89461L56.2197 5.88368L56.1792 5.95628ZM56.7621 6.93988H56.8452V6.9171L56.8336 6.8975L56.7621 6.93988ZM56.7621 8.58834L56.8336 8.63073L56.8452 8.61113V8.58834H56.7621ZM56.1792 9.57195L56.2197 9.64454L56.2393 9.63361L56.2507 9.61434L56.1792 9.57195ZM55.1683 10.1366V10.2198H55.1899L55.2088 10.2092L55.1683 10.1366ZM54.0116 10.1366L53.9711 10.2092L53.99 10.2198H54.0116V10.1366ZM53.0007 9.57195L52.9292 9.61434L52.9406 9.63361L52.9601 9.64454L53.0007 9.57195ZM52.4178 8.58834H52.3347V8.61113L52.3463 8.63073L52.4178 8.58834ZM52.4178 7.75956V7.67641H52.3347V7.75956H52.4178ZM53.0553 7.75956H53.1385V7.67641H53.0553V7.75956ZM53.0553 8.4153H52.9722V8.43833L52.984 8.45808L53.0553 8.4153ZM53.4652 9.09836L53.3939 9.14114L53.4054 9.16035L53.425 9.17117L53.4652 9.09836ZM54.1756 9.48998L54.1354 9.5628L54.1542 9.57313H54.1756V9.48998ZM55.0043 9.48998V9.57313H55.0257L55.0445 9.5628L55.0043 9.48998ZM55.7147 9.09836L55.7549 9.17117L55.7745 9.16035L55.786 9.14114L55.7147 9.09836ZM56.1246 8.4153L56.1959 8.45808L56.2077 8.43833V8.4153H56.1246ZM56.1246 7.11293H56.2077V7.0899L56.1959 7.07015L56.1246 7.11293ZM55.7147 6.42986L55.786 6.38709L55.7745 6.36787L55.7549 6.35705L55.7147 6.42986ZM55.0043 6.03824L55.0445 5.96543L55.0257 5.9551H55.0043V6.03824ZM54.3031 6.03824V5.9551H54.2816L54.2628 5.96548L54.3031 6.03824ZM53.1828 6.65755V6.7407H53.2043L53.2231 6.73032L53.1828 6.65755ZM52.5453 6.65755L52.4623 6.65231L52.4567 6.7407H52.5453V6.65755ZM52.7912 2.76866V2.68551H52.7132L52.7082 2.76341L52.7912 2.76866ZM56.4524 2.76866H56.5356V2.68551H56.4524V2.76866ZM56.4524 3.37886V3.462H56.5356V3.37886H56.4524ZM53.3923 3.37886V3.29571H53.3144L53.3093 3.37346L53.3923 3.37886ZM53.2284 5.90163L53.1454 5.89624L53.1355 6.04895L53.269 5.97418L53.2284 5.90163ZM54.1391 5.39161V5.30846H54.1174L54.0985 5.31906L54.1391 5.39161ZM55.1683 5.39161L55.2088 5.31902L55.1899 5.30846H55.1683V5.39161ZM56.1077 5.99866L56.6905 6.98227L56.8336 6.8975L56.2507 5.91389L56.1077 5.99866ZM56.6789 6.93988V8.58834H56.8452V6.93988H56.6789ZM56.6905 8.54595L56.1077 9.52956L56.2507 9.61434L56.8336 8.63073L56.6905 8.54595ZM56.1387 9.49936L55.1277 10.064L55.2088 10.2092L56.2197 9.64454L56.1387 9.49936ZM55.1683 10.0535H54.0116V10.2198H55.1683V10.0535ZM54.0522 10.064L53.0412 9.49936L52.9601 9.64454L53.9711 10.2092L54.0522 10.064ZM53.0722 9.52956L52.4893 8.54595L52.3463 8.63073L52.9292 9.61434L53.0722 9.52956ZM52.501 8.58834V7.75956H52.3347V8.58834H52.501ZM52.4178 7.84271H53.0553V7.67641H52.4178V7.84271ZM52.9722 7.75956V8.4153H53.1385V7.75956H52.9722ZM52.984 8.45808L53.3939 9.14114L53.5365 9.05558L53.1266 8.37252L52.984 8.45808ZM53.425 9.17117L54.1354 9.5628L54.2157 9.41717L53.5053 9.02554L53.425 9.17117ZM54.1756 9.57313H55.0043V9.40683H54.1756V9.57313ZM55.0445 9.5628L55.7549 9.17117L55.6746 9.02554L54.9642 9.41717L55.0445 9.5628ZM55.786 9.14114L56.1959 8.45808L56.0533 8.37252L55.6434 9.05558L55.786 9.14114ZM56.2077 8.4153V7.11293H56.0414V8.4153H56.2077ZM56.1959 7.07015L55.786 6.38709L55.6434 6.47264L56.0533 7.15571L56.1959 7.07015ZM55.7549 6.35705L55.0445 5.96543L54.9642 6.11106L55.6746 6.50268L55.7549 6.35705ZM55.0043 5.9551H54.3031V6.12139H55.0043V5.9551ZM54.2628 5.96548L53.1426 6.58478L53.2231 6.73032L54.3433 6.11101L54.2628 5.96548ZM53.1828 6.57441H52.5453V6.7407H53.1828V6.57441ZM52.6283 6.6628L52.8742 2.7739L52.7082 2.76341L52.4623 6.65231L52.6283 6.6628ZM52.7912 2.8518H56.4524V2.68551H52.7912V2.8518ZM56.3693 2.76866V3.37886H56.5356V2.76866H56.3693ZM56.4524 3.29571H53.3923V3.462H56.4524V3.29571ZM53.3093 3.37346L53.1454 5.89624L53.3113 5.90702L53.4753 3.38425L53.3093 3.37346ZM53.269 5.97418L54.1797 5.46416L54.0985 5.31906L53.1877 5.82908L53.269 5.97418ZM54.1391 5.47476H55.1683V5.30846H54.1391V5.47476ZM55.1277 5.4642L56.1387 6.02887L56.2197 5.88368L55.2088 5.31902L55.1277 5.4642Z" fill="#3A3A3A" mask="url(#path-3-outside-1_4370_720)"/>
</svg>
